# xmcd CD database file
#
# Track frame offsets:
#	150
#	20992
#	52692
#	74412
#
# Disc length: 1265 seconds
#
# Revision: 0
# Processed by: cddbd v1.5.1PL0 Copyright (c) Steve Scherf et al.
# Submitted via: CDex 1.51
#
DISCID=3104ef04
DTITLE=HOUND DOG - おまえを決してはなさない
DYEAR=1995
DGENRE=Rock
TTITLE0=おまえを決してはなさない
TTITLE1=ローリング・オン・ザ・ロード
TTITLE2=BROTHER LOUIE
TTITLE3=おまえを決してはなさない（カラオケ）
EXTD=YEAR: 1995
EXTT0=
EXTT1=
EXTT2=
EXTT3=
PLAYORDER=
